<!-- Generated by IcoMoon.io -->
<svg version="1.1" xmlns="http://www.w3.org/2000/svg" width="256" height="256" viewBox="0 0 256 256">
<title>compass</title>
<path fill="#fff" d="M136.002 256.001c-0.574 0-1.155-0.063-1.735-0.191-3.662-0.813-6.267-4.059-6.267-7.81v-120h-120c-3.751 0-6.998-2.606-7.81-6.267s1.028-7.396 4.427-8.982l240-112c3.049-1.422 6.661-0.786 9.040 1.593s3.015 5.992 1.593 9.040l-112 240c-1.335 2.86-4.193 4.618-7.248 4.618zM44.060 112h91.94c4.418 0 8 3.582 8 8v91.94l87.447-187.387-187.387 87.447z"></path>
</svg>
