<!-- Generated by IcoMoon.io -->
<svg version="1.1" xmlns="http://www.w3.org/2000/svg" width="256" height="256" viewBox="0 0 256 256">
<title>eye-blocked</title>
<path d="M236.486 3.514c-4.686-4.686-12.284-4.686-16.971 0l-50.541 50.541c-12.984-3.938-26.737-6.056-40.974-6.056-55.829 0-104.221 32.511-128 80 10.28 20.531 25.162 38.26 43.255 51.774l-39.74 39.74c-4.686 4.686-4.686 12.284 0 16.971 2.343 2.344 5.414 3.515 8.485 3.515s6.142-1.172 8.486-3.514l216-216c4.686-4.686 4.686-12.284 0-16.971zM104 80c10.56 0 19.52 6.823 22.73 16.299l-30.431 30.431c-9.475-3.21-16.299-12.17-16.299-22.73 0-13.255 10.745-24 24-24zM27.529 128c9.573-15.131 22.318-27.981 37.359-37.574 0.98-0.625 1.969-1.231 2.966-1.825-2.49 6.832-3.853 14.206-3.853 21.899 0 13.722 4.322 26.435 11.675 36.855l-15.231 15.231c-13.111-9.21-24.3-20.97-32.915-34.585z"></path>
<path d="M192 110.5c0-6.791-1.064-13.334-3.025-19.475l-80.452 80.452c6.142 1.96 12.686 3.023 19.477 3.023 35.346 0 64-28.654 64-64z"></path>
<path d="M207.506 72.493l-17.34 17.341c0.316 0.197 0.632 0.392 0.946 0.592 15.041 9.594 27.785 22.444 37.358 37.574-9.573 15.131-22.319 27.981-37.359 37.574-18.899 12.054-40.722 18.426-63.112 18.426-9.666 0-19.225-1.19-28.49-3.51l-19.224 19.224c14.93 5.365 30.987 8.286 47.714 8.286 55.828 0 104.219-32.511 128-80-11.256-22.479-28.030-41.599-48.494-55.507z"></path>
</svg>
