<!-- Generated by IcoMoon.io -->
<svg version="1.1" xmlns="http://www.w3.org/2000/svg" width="256" height="256" viewBox="0 0 256 256">
<title>spinner9</title>
<path d="M128 0c-69.687 0-126.365 55.691-127.962 124.993 1.48-60.466 47.458-108.993 103.962-108.993 57.438 0 104 50.144 104 112 0 13.255 10.745 24 24 24s24-10.745 24-24c0-70.692-57.308-128-128-128zM128 256c69.687 0 126.365-55.69 127.962-124.993-1.48 60.466-47.458 108.993-103.962 108.993-57.438 0-104-50.144-104-112 0-13.255-10.745-24-24-24s-24 10.745-24 24c0 70.692 57.307 128 128 128z"></path>
</svg>
